<svg width="210" height="256" viewBox="0 0 210 256" fill="none" xmlns="http://www.w3.org/2000/svg">
<path d="M206 142.086C206 197.507 160.803 242.475 105 242.475C49.1972 242.475 4 197.507 4 142.086C4 86.6642 49.1972 41.6963 105 41.6963C160.803 41.6963 206 86.6642 206 142.086Z" stroke="white" stroke-width="8"/>
<path d="M149.941 109.174L149.941 163.95C149.941 169.127 148 173.749 144.117 177.817C139.772 182.254 134.271 184.473 127.615 184.473L127.615 173.102C132.607 173.102 135.889 170.93 137.461 166.584C137.923 165.198 138.154 163.811 138.154 162.424L138.154 109.174L149.941 109.174ZM121.375 173.102L121.375 184.473C114.349 184.288 108.802 181.838 104.734 177.124C100.112 181.838 94.5649 184.288 88.0936 184.473L88.0936 173.102C93.0857 173.102 96.4139 170.93 98.0779 166.584C98.5402 165.29 98.7713 163.903 98.7713 162.424L98.7713 109.174L110.558 109.174L110.558 162.424C110.558 167.139 112.546 170.375 116.521 172.131C118 172.778 119.618 173.102 121.375 173.102ZM81.8533 173.102L81.8533 184.473C73.0708 184.473 66.5532 180.868 62.3006 173.657C60.3592 170.329 59.3885 167.093 59.3885 163.95L59.3885 109.174L71.1756 109.174L71.1756 162.424C71.1756 167.509 73.3019 170.837 77.5545 172.409C78.8488 172.871 80.2817 173.102 81.8533 173.102Z" fill="#6EC827"/>
</svg>
